<svg xmlns="http://www.w3.org/2000/svg" viewBox="0 0 800 500" role="img" aria-label="Leather handbag on a light surface">
    <rect width="800" height="500" fill="#f7f1ec"/>
    <circle cx="120" cy="90" r="90" fill="#f1ded2"/>
    <path d="M310 130c55-62 146-64 202-3" fill="none" stroke="#4c2c23" stroke-width="20" stroke-linecap="round"/>
    <path d="M252 178h323l-36 220H288z" fill="#7f2f2c"/>
    <path d="M291 202h247l-26 160H318z" fill="#9f4136"/>
    <path d="M252 178h323l-36 220H288z" fill="none" stroke="#4c2c23" stroke-width="10"/>
    <rect x="365" y="250" width="92" height="58" rx="8" fill="#d9b55f"/>
    <path d="M388 250v58M434 250v58M365 279h92" stroke="#8b6429" stroke-width="8"/>
    <path d="M580 126l112-54" stroke="#d3b3a3" stroke-width="18" stroke-linecap="round"/>
    <path d="M86 386c126-39 241-43 345-12 86 26 169 24 280-23v149H86z" fill="#fffaf7"/>
</svg>
